
<svg xmlns="http://www.w3.org/2000/svg" version="1.1" xmlns:xlink="http://www.w3.org/1999/xlink" preserveAspectRatio="none" x="0px" y="0px" width="800px" height="600px" viewBox="0 0 800 600">
<defs>
<linearGradient id="Gradient_1" gradientUnits="userSpaceOnUse" x1="402.05" y1="214.93749999999997" x2="395.65000000000003" y2="484.9625" spreadMethod="pad">
<stop  offset="0.39215686274509803%" stop-color="#94FF8C"/>

<stop  offset="52.549019607843135%" stop-color="#2963DE"/>

<stop  offset="100%" stop-color="#0018FF"/>
</linearGradient>

<g id="Layer1_0_FILL">
<path fill="url(#Gradient_1)" stroke="none" d="
M 378.65 182.55
Q 376.7 183.3 374.85 184.1 357.25 191.6 345.8 201.95 336.05 210.7 331.05 221.2 325.3 233.15 316.55 238.8 312.25 242.15 305.85 244.1 303.45 245.1 300.6 245.85 291.8 247.7 286.3 249.5 284.5 249.9 283.25 250.4 274.45 252.95 269.2 260.75 269.15 260.8 269.1 260.9 262.3 270.4 260.75 277.9 258.1 286.8 260.75 295.45 266.15 313.6 285.65 321.7 287.9 322.7 290.3 323.55 300.15 326.85 305.4 334.7 308.55 338.45 311.4 347.1 312.25 348.9 313.05 351.15 314.95 357.2 316.9 363.2 318.2 369.15 320.35 374.2 322.4 379.85 325.6 385 330 392 335.95 396.85 339.9 400.15 344.05 402.4 352.65 407.3 363.1 408.7 366.65 409.2 370.6 409.25 380.75 409.4 392.9 406.85 393.7 406.65 394.5 406.5 397.5 405.75 400.35 404.95 416.05 400.8 426.4 396.7 428.55 396 430.65 395.3 446.95 389.55 457.75 387.3 459.8 386.85 461.75 386.4 476.25 382.2 490.15 375.25 491.2 374.75 492.25 374.2 501.2 369.5 509.25 363.15 511.55 361.35 513.75 359.4 515.8 357.6 517.8 355.65 519.1 354.4 520.3 353.15 529.8 343.4 535.15 333.2 537.65 328.55 538.8 324.4 540.3 319.15 539.5 315 538.5 308.35 532.3 300.25 532.05 299.9 531.8 299.55 521.9 286.95 519.55 284.75 513.35 278.2 508.4 271.95 507.4 270.45 506.6 268.95 505.75 267.5 505.1 266 501.45 260.85 502.05 255.95 501.3 251.9 501.7 247.5 501.9 242.75 501.65 237.9 501.6 236.05 501.45 234.2 500.9 227.85 499.35 221.15 498.3 216.6 496.75 212.05 494.15 204.35 489.05 197.6 485.45 192.75 480.85 188.75 475.45 184 468.8 180.45 463.85 177.8 458.55 176 452.9 174.1 447 173.2 444.8 172.75 442.45 172.5 437.4 172 432 171.95 421.95 171.9 411.35 173.5 410.25 173.7 409.15 173.9 406.95 174.25 404.85 174.7 391.25 177.45 378.65 182.55 Z"/>
</g>

<g id="Layer0_0_FILL">
<path fill="#000000" stroke="none" d="
M 800.4 601.45
L 800.4 1.45 0.4 1.45 0.4 601.45 800.4 601.45
M 541.5 147.2
Q 545.7 143.6 551.6 143.6 552.55 143.6 554.15 143.65 555.75 143.7 556.1 143.7
L 556.9 143.7
Q 557.9 143.4 557.9 142.7 557.9 141 554.2 139.25 549.75 137.1 543.1 137.1 533.6 137.1 527.2 143.25 519.6 150.45 519.6 164 519.6 167.8 520.3 172.4 523.45 192.8 525.9 199.75 528.95 208.2 534.5 208.2 542.9 208.2 542.9 199.2 542.9 195.2 540.9 186.7 540.1 183.25 537.35 182.35 534.45 181.85 531.6 181.4 530.5 181.2 530.15 178.45 530 176.35 530.2 174.8 531.15 175.3 570.6 175.9 563.9 186.4 563.9 200.6 563.9 203.2 564.2 204.4 562.6 206.3 556.55 209.05 547.6 213.2 534.8 215.8 528.85 217 524 217 497.6 217 497.6 182.8 497.6 131.3 536.8 131.3 570.2 131.3 574.3 150.8 574.9 153.7 574.9 156 574.9 161.15 571.4 163.5 567.8 165.8 559.8 165.8 550.25 165.8 543.65 162.35 537.5 159.05 537.5 154.8 537.5 150.6 541.5 147.2
M 490.5 160.5
Q 490.5 168.35 487.8 183.7 485.1 199.05 485.1 206.8 485.1 210.25 485.8 212.2 487.7 213 493.9 215.3 493.5 216.5 492.1 220.3 489.95 219.9 476.65 216.4 464.3 213.1 462.7 212.6 469.1 198.65 469.1 179.5 469.1 171.6 467.15 166.15 465.15 160.7 462.1 160.7 458.45 160.7 453.45 167.25 447.95 174.4 446 183.4 446 190.75 451 212.7 440.5 208.3 429.3 208.3 420.75 208.3 417.8 211.4
L 417.3 199.4
Q 419.1 198.4 421.9 198.4 425.3 198.4 428.7 199.9 422.5 183.4 422.5 155.6 422.5 153.65 422.7 149.9 422.9 146.15 422.9 144.3 422.9 141.1 419.1 140.2 417.45 139.9 413.6 139.2 412.4 138.95 412.4 134.6 412.4 133.7 412.7 132.5 417.35 133.35 452.5 136.1 444.4 147.25 444.4 164.9 444.4 167.2 444.6 168.8 447.5 157.55 454.65 148.4 460.4 141.05 467.85 136.35 474.1 132.4 477.8 132.4 484.2 132.4 487.5 140.6 490.5 148 490.5 160.5
M 349.6 135.9
Q 356.9 135.05 363.1 133.7 369.5 132.3 376.9 129.8 384.15 141.6 392.8 165.3 396.75 176.8 403.3 195.7 404.2 198.25 408.7 199.65 412.15 200.4 415.6 201.2 414 204.1 410.7 209.9 402.7 209.5 399.5 209.5 388.55 209.5 375.5 211.7 376.7 203.3 376.7 195.1 376.7 186.05 375.2 181 367.15 180.2 350.1 178.3 348.5 184 346.4 189.8 344 196.35 341.2 201 344.1 201.7 356.1 202.3 355.2 208.6 355.2 213.8 344.1 210.1 334.5 207.7 328.1 206.1 318.1 204.3 319.45 202.5 321.4 199.8
L 324 196.2
Q 325.75 196.95 329.6 198.7 336.95 188.55 342.9 169.2 349.15 148.95 349.6 135.9
M 436.2 269.2
Q 441.05 267.15 444.05 267.1 445.05 269.1 445.05 272.6 445.05 273.65 444.9 275.8 444.75 277.95 444.75 279 444.75 282.55 446.75 291 446.95 291.9 446.75 292.1 446.6 292.25 446.15 292.2 442.05 291.65 432.1 291.25 427.5 291.05 422.95 290.9 423.9 307.8 430.25 314.1 435.75 319.6 448.75 319.6 452.85 319.6 456.45 318 459.65 316.6 459.65 315.5 459.65 315 458.55 315 457.7 315 456.2 315.1 454.75 315.2 453.75 315.2 444.2 315.2 441.25 307.9 440.75 306.7 440.75 305.4 440.75 301.6 445.45 298.6 450.4 295.45 459.45 294.1 462.15 293.7 464.15 293.7 474.95 293.7 474.95 302.8 474.95 303.9 474.85 304.4 473.4 317.35 463.25 322.7 455.6 326.7 441.65 326.7 439.5 326.7 423.65 325.9 420.9 325.75 414 325.05 408.1 324.4 405.05 324.4 398.9 324.4 395.55 326.8
L 395.85 314.3
Q 397.45 313.5 399.75 313.5 403.2 313.5 407.45 315.5 400.8 296.2 400.45 258.8 400.4 255.45 397.65 254.4 394.8 253.95 391.05 252.95 389.95 252.4 389.95 248.8 389.95 246.6 390.25 246.1 394.55 247.55 410.6 249.2 426.95 250.9 437.55 250.9 449.7 250.9 466.95 250.2 464.3 255.2 462.4 261.05 461 266 459.65 270.9 458.95 270.95 456.35 271.2 454.3 271.4 453.15 271.4 452.15 271.4 452.05 270.8 451.7 263.85 449.85 261 447.1 256.7 434.55 256.7 433.55 256.7 424.75 257.1 421.85 263.85 421.85 273.5 421.85 275.3 422 278.35 422.15 281.45 422.15 282.7 426 282.4 428.8 282.1 435.5 281.35 435.75 280.6 436.15 279.35 436.15 278 436.15 275.8 434.6 273.95 433.25 272.65 431.95 271.3 434.2 270.1 436.2 269.2
M 359.75 252.55
Q 356.3 251.5 351.95 251.5 346.55 251.5 343.15 253.2 339.05 255.25 339.05 259.3 339.05 261.2 339.95 263.5 341.3 267.9 342.6 272.3 344.1 277 347.1 279.05 351 281.7 359.25 281.7 360 281.7 363.9 281.6 367.8 281.4 369.75 281.4 379.15 281.4 383.6 284.05 389.35 287.55 389.35 296.3 389.35 300.9 387.55 307.9 385.15 317.2 374.35 322.65 363.1 328.3 345.35 328.3 327.9 328.3 317.75 321.5 309.25 315.9 309.25 308.7 309.25 304.05 312.8 300.7 316.85 296.9 324.55 295.9 328.35 295.4 332.35 295.4 340.6 295.4 345.4 297.8 350.05 300.1 350.05 303.9 350.05 309.65 343.85 313.6 340.95 315.5 333.85 318 331.15 318.95 331.15 319.7 331.15 322.1 341.25 322.1 349.2 322.1 354.7 319.8 361.55 317 361.55 311.6 361.55 310.85 361.35 309.8 358.55 295.55 357.2 292.75 354.25 287 346.05 287 343.9 287 338.75 287.6 333.5 288.1 331.25 288.1 315.45 288.1 315.45 275.4 315.45 271.3 317.05 265.5 319.2 257.6 326.7 252.9 335.6 247.3 351.05 247.3 366.9 247.3 375.8 252.3 383.85 256.8 383.85 263.8 383.85 274.2 367.25 274.2 359.15 274.2 353.5 271.5 348.15 269.05 348.15 265.8 348.15 261.15 355.25 258.5 357.95 257.6 360.65 256.7 363.15 255.8 363.15 254.8 363.15 253.5 359.75 252.55
M 349.35 390.75
Q 349.95 390.6 349.95 389.95 349.95 388.8 347.5 387.55 344.7 386.15 341.05 386.15 334.4 386.15 329.4 389.85 323.15 394.45 323.15 402.85 323.15 409.75 327.55 423.95 327.95 425.2 332.65 426.15 337.8 427.2 345.75 427.75 345.05 430.8 344.05 435.15 342.15 435.05 338.45 435.05 316 435.05 294.05 440.65 292.6 438.45 291.65 433.75 291.55 433.2 292.15 432.95 298.05 430.5 298.15 430.5 300.7 429.15 300.85 427.25 301.5 422.1 302.15 417.05 303.25 407.15 303.25 401.75 303.25 395.9 301.95 394.95 300.3 393.75 297.25 393.75 296.1 393.75 293.25 394.25 292.45 394.4 292.45 394.05 292.45 393.3 291.9 388.75 291.25 384.15 291.25 383.65 291.25 382.95 292.05 383.15 296.2 384.25 300.45 384.25 310.8 384.25 322.05 376.75 321.4 380.6 320.45 386.75 328.25 379.45 342.15 379.45 361.05 379.45 367.05 393.65 368.85 397.95 368.85 400.85 368.85 407.7 356.45 410.95 349.25 412.85 343.45 412.85 332.85 412.85 332.85 407.05 332.85 400.55 338.3 396 342.65 392.4 349.35 390.75
M 377.75 393.6
Q 387.2 383.75 402.25 381.85 407.1 381.25 413.45 381.25 426.15 381.25 431.65 386.4 436.65 391.1 436.65 401.05 436.65 405.65 435.55 412.15 433.55 423.7 426.95 431.4 418.35 441.35 404.05 441.35 391.05 441.35 380.55 433.05 369.45 424.25 369.45 411.95 369.45 402.3 377.75 393.6
M 442.55 385.95
Q 441.1 385.8 438.25 385.25 436.95 384.85 436.95 380.95 436.95 379.75 437.15 378.95 438.05 379.45 475.75 381.95 469.45 391.9 469.45 408.15 475.4 389.75 491.15 379.55 495.5 376.75 498.75 376.75 504.45 376.75 507.25 384.45 509.55 390.7 509.55 400.65 509.55 404.45 509.15 408.25 507.75 421.6 507.75 428.85 507.75 435.65 509.05 438.25 511.8 439.3 516.55 440.75 515.85 442.65 514.75 445.55
L 484.75 439.95
Q 489.75 431.95 489.75 415.05
L 489.75 410.55
Q 489.4 402.55 485.55 402.55 484.35 402.55 482.35 403.55 474.2 407.65 470.75 421.45 470.85 426.15 475.25 439.25 464.15 434.25 452.95 434.25 445.55 434.25 442.65 436.85
L 442.75 425.35
Q 444.3 424.65 446.65 424.65 450.1 424.65 453.95 426.45 451.25 422.6 449.05 407.3 447.7 397.85 447.25 390.55 447 386.65 442.55 385.95
M 606.85 275.4
Q 603.2 275.4 598.2 281.95 592.7 289.1 590.75 298.1 590.75 305.45 595.75 327.4 585.25 323 574.05 323 565.5 323 562.55 326.1
L 562.05 314.1
Q 563.85 313.1 566.65 313.1 570.05 313.1 573.45 314.6 567.25 298.1 567.25 270.3 567.25 268.35 567.45 264.6 567.65 260.85 567.65 259 567.65 255.8 563.85 254.9 562.2 254.6 558.35 253.9 557.15 253.65 557.15 249.3 557.15 248.4 557.45 247.2 562.1 248.05 597.25 250.8 589.15 261.95 589.15 279.6 589.15 281.9 589.35 283.5 592.25 272.25 599.4 263.1 605.15 255.75 612.6 251.05 618.85 247.1 622.55 247.1 628.95 247.1 632.25 255.3 635.25 262.7 635.25 275.2 635.25 283.05 632.55 298.4 629.85 313.75 629.85 321.5 629.85 324.95 630.55 326.9 632.45 327.7 638.65 330 638.25 331.2 636.85 335 634.7 334.6 621.4 331.1 609.05 327.8 607.45 327.3 613.85 313.35 613.85 294.2 613.85 286.3 611.9 280.85 609.9 275.4 606.85 275.4
M 489.05 263.95
Q 500.8 250.9 519.55 250.9 555.75 250.9 555.75 275.7 555.75 284.85 551.05 297.2 545.65 311.4 537.5 320.35 526.35 332.5 511.95 332.5 498.7 332.5 488.7 320.95 478.35 308.9 478.35 292 478.35 275.8 489.05 263.95
M 515.85 388.45
Q 515.25 388.55 515.05 387.85 514.95 387.45 514.95 385.15 514.95 378.6 516.25 374.55 522.45 377.25 532.45 377.75 532.3 373.75 531.15 368.85 530.05 364.1 530.05 363.95 530.05 363.5 530.2 363.45 530.35 363.35 530.55 363.35 533.8 363.35 545.75 362.4 557.7 361.4 563.85 360.65 564.9 360.55 564.95 360.65 564.95 360.9 561.35 366.8 557.1 373.7 554.95 378.85 556.5 378.85 558.25 378.85 570.7 378.75 571.1 377.75 571.45 376.65 571.45 375.55 571.45 372.25 567.85 369.55 576.75 364.7 579.85 364.45 580.75 366 580.75 369.15 580.75 370.45 580.6 373 580.45 375.55 580.45 376.55 580.45 379.35 582.05 384.9 583.65 390.4 585.45 394.15 583.4 395.1 581.35 396.05 578.15 397.45 576.55 397.45 575.65 397.45 575.25 397.05 574.65 396.65 572.55 391.75 570.55 387.15 568.05 386.95 566.8 386.85 552.75 386.85 551.8 387.6 550.35 396.25 548.65 405.85 548.65 414.05 548.65 431.45 556.45 431.45 560.55 431.45 565.8 429.2 570.95 426.95 570.95 425.35 570.95 424.85 570.45 424.55 567.55 423.85 560.55 420.75 554.05 416.9 554.05 410.25 554.05 407.15 557.55 405.2 561.25 403.15 567.65 403.15 572.35 403.15 578.45 404.45 591.65 407.25 591.65 414.25 591.65 417.35 589.15 421.85 581.6 435.5 552.95 436.85 548.8 437.05 548.05 437.05 536.75 437.05 531.35 433.15 524.75 428.35 524.75 416.45 524.75 403.8 532.25 385.95 525.8 386.2 515.85 388.45
M 303.6 136.1
Q 304.45 136.05 304.6 137.1 305.85 146.3 312.7 160.3 318.8 172.65 318.8 182.7 318.8 187.5 317.7 193.4 314.2 212.15 292.6 215.3 288.5 215.9 285.1 215.9 272.55 215.9 262.45 210.65 250.95 204.6 246.8 193.6 245.3 189.6 245.3 186.7 245.3 178.75 260.4 176.7 264.8 176.1 268.1 176.1 275.95 176.1 280.3 178.4 284.6 180.7 284.2 184.5 283.15 194.9 265.6 199.3 265.1 199.45 265.1 200.1 265.1 202.25 270.3 205.75 275.85 209.5 280.5 209.5 286.75 209.5 290.15 201.75 293.3 194.65 293.3 183.4 293.3 162.45 284.5 145.3 275.8 147.8 269.4 151.7 268 152.55 268 154.9 268 156.15 268.75 159.5 269.5 162.85 269.5 163.6 269.5 165.1 266.1 166 263.05 166.6 258.4 167.7 257.2 156.2 252.2 137.4 252.05 136.9 252.8 136.9
L 264.3 136.9
Q 287.7 136.9 303.6 136.1
M 160.25 304.5
Q 157.85 311.05 155.05 315.7 157.95 316.4 169.95 317 169.05 323.3 169.05 328.5 157.95 324.8 148.35 322.4 141.95 320.8 131.95 319 133.3 317.2 135.25 314.5
L 137.85 310.9
Q 139.6 311.65 143.45 313.4 150.8 303.25 156.75 283.9 163 263.65 163.45 250.6 170.75 249.75 176.95 248.4 183.35 247 190.75 244.5 198 256.3 206.65 280 210.6 291.5 217.15 310.4 218.05 312.95 222.55 314.35 226 315.1 229.45 315.9 227.85 318.8 224.55 324.6 216.55 324.2 213.35 324.2 202.4 324.2 189.35 326.4 190.55 318 190.55 309.8 190.55 300.75 189.05 295.7 181 294.9 163.95 293 162.35 298.7 160.25 304.5
M 282.95 294.2
Q 282.95 286.3 281 280.85 279 275.4 275.95 275.4 272.3 275.4 267.3 281.95 261.8 289.1 259.85 298.1 259.85 305.45 264.85 327.4 254.35 323 243.15 323 234.6 323 231.65 326.1
L 231.15 314.1
Q 232.95 313.1 235.75 313.1 239.15 313.1 242.55 314.6 236.35 298.1 236.35 270.3 236.35 268.35 236.55 264.6 236.75 260.85 236.75 259 236.75 255.8 232.95 254.9 231.3 254.6 227.45 253.9 226.25 253.65 226.25 249.3 226.25 248.4 226.55 247.2 231.2 248.05 266.35 250.8 258.25 261.95 258.25 279.6 258.25 281.9 258.45 283.5 261.35 272.25 268.5 263.1 274.25 255.75 281.7 251.05 287.95 247.1 291.65 247.1 298.05 247.1 301.35 255.3 304.35 262.7 304.35 275.2 304.35 283.05 301.65 298.4 298.95 313.75 298.95 321.5 298.95 324.95 299.65 326.9 301.55 327.7 307.75 330 307.35 331.2 305.95 335 303.8 334.6 290.5 331.1 278.15 327.8 276.55 327.3 282.95 313.35 282.95 294.2
M 226.25 368.25
Q 222.95 369.45 219.95 369.45 216.85 369.45 214.85 368.35
L 215.75 356.15
Q 221.05 360.55 243.55 360.55 266.1 360.55 283.15 357.55 283.65 357.45 283.95 357.95 289.85 368.25 289.85 381.45 289.85 388.1 287.25 391.1 284.6 394.15 278.65 394.15 270.6 394.15 262.85 390.65 254.05 386.7 254.05 381.05 254.05 376.8 258.45 373.75 262.75 370.85 268.55 370.85 275.9 370.85 281.35 374.15 282 374.55 282.15 374.55 282.55 374.55 282.55 374.05 282.55 371.7 278.1 368.9 272.25 365.15 262.75 365.15 259.3 365.15 256.65 365.45 243.95 366.9 243.95 383.95 243.95 390.5 245.65 398.45 253.55 398.95 261.45 398.95 263.4 398.95 267.3 398.8 271.2 398.65 271.75 398.65 272.8 398.65 272.65 399.75 272.35 402.25 272.35 405.05 272.35 411 273.45 417.35 272.2 417.35 268.6 418 264.9 418.65 263.45 418.65 261.4 418.65 260.85 417.85 260.4 417.25 259.85 412.6 259.4 408.7 257.05 408.05 255.9 407.7 247.65 406.55 253 426.95 258.05 437.05 238.6 440.85 217.45 445.55 216.95 443.05 216.95 441.65 216.95 439.9 217.35 439.25 217.75 438.55 219.25 438.25 226.4953125 436.7611328125 226.55 433.2 226.517578125 434.1810546875 225.15 420.7 223.75 406.9 223.75 396.15 223.75 381.05 226.25 368.25
M 192.15 272.2
Q 192.15 265.5 183.05 265.5 176.45 265.5 171.15 269.05 165.55 272.7 165.55 277.5 165.55 283.8 176.45 283.8 192.15 283.8 192.15 272.2
M 516.65 273.1
Q 507.05 273.1 498 278.45 488.45 284.05 488.45 290.8 488.45 298.65 497.3 303.85 504.95 308.3 513.65 308.3 524.6 308.3 533.6 302.1 542.45 296.1 542.45 289.3 542.45 282.45 534.75 277.75 527.25 273.1 516.65 273.1
M 428.25 408.15
Q 428.25 404.4 422 402.25 416.35 400.35 407.45 400.35 397.7 400.35 388.45 405.7 379.75 410.8 379.75 415.35 379.75 418.45 385.35 420.55 390.9 422.65 398.85 422.65 408.9 422.65 418.6 417.9 428.25 413.2 428.25 408.15
M 357.3 154.35
Q 351.7 158 351.7 162.8 351.7 169.1 362.6 169.1 378.3 169.1 378.3 157.5 378.3 150.8 369.2 150.8 362.6 150.8 357.3 154.35 Z"/>
</g>

<path id="Layer0_0_1_STROKES" stroke="#666666" stroke-width="0.5" stroke-linejoin="round" stroke-linecap="round" fill="none" d="
M 0.4 1.45
L 800.4 1.45 800.4 601.45 0.4 601.45 0.4 1.45 Z
M 574.9 156
Q 574.9 161.15 571.4 163.5 567.8 165.8 559.8 165.8 550.25 165.8 543.65 162.35 537.5 159.05 537.5 154.8 537.5 150.6 541.5 147.2 545.7 143.6 551.6 143.6 552.55 143.6 554.15 143.65 555.75 143.7 556.1 143.7
L 556.9 143.7
Q 557.9 143.4 557.9 142.7 557.9 141 554.2 139.25 549.75 137.1 543.1 137.1 533.6 137.1 527.2 143.25 519.6 150.45 519.6 164 519.6 167.8 520.3 172.4 523.45 192.8 525.9 199.75 528.95 208.2 534.5 208.2 542.9 208.2 542.9 199.2 542.9 195.2 540.9 186.7 540.1 183.25 537.35 182.35 534.45 181.85 531.6 181.4 530.5 181.2 530.15 178.45 530 176.35 530.2 174.8 531.15 175.3 570.6 175.9 563.9 186.4 563.9 200.6 563.9 203.2 564.2 204.4 562.6 206.3 556.55 209.05 547.6 213.2 534.8 215.8 528.85 217 524 217 497.6 217 497.6 182.8 497.6 131.3 536.8 131.3 570.2 131.3 574.3 150.8 574.9 153.7 574.9 156 Z
M 493.9 215.3
Q 493.5 216.5 492.1 220.3 489.95 219.9 476.65 216.4 464.3 213.1 462.7 212.6 469.1 198.65 469.1 179.5 469.1 171.6 467.15 166.15 465.15 160.7 462.1 160.7 458.45 160.7 453.45 167.25 447.95 174.4 446 183.4 446 190.75 451 212.7 440.5 208.3 429.3 208.3 420.75 208.3 417.8 211.4
L 417.3 199.4
Q 419.1 198.4 421.9 198.4 425.3 198.4 428.7 199.9 422.5 183.4 422.5 155.6 422.5 153.65 422.7 149.9 422.9 146.15 422.9 144.3 422.9 141.1 419.1 140.2 417.45 139.9 413.6 139.2 412.4 138.95 412.4 134.6 412.4 133.7 412.7 132.5 417.35 133.35 452.5 136.1 444.4 147.25 444.4 164.9 444.4 167.2 444.6 168.8 447.5 157.55 454.65 148.4 460.4 141.05 467.85 136.35 474.1 132.4 477.8 132.4 484.2 132.4 487.5 140.6 490.5 148 490.5 160.5 490.5 168.35 487.8 183.7 485.1 199.05 485.1 206.8 485.1 210.25 485.8 212.2 487.7 213 493.9 215.3 Z
M 415.6 201.2
Q 414 204.1 410.7 209.9 402.7 209.5 399.5 209.5 388.55 209.5 375.5 211.7 376.7 203.3 376.7 195.1 376.7 186.05 375.2 181 367.15 180.2 350.1 178.3 348.5 184 346.4 189.8 344 196.35 341.2 201 344.1 201.7 356.1 202.3 355.2 208.6 355.2 213.8 344.1 210.1 334.5 207.7 328.1 206.1 318.1 204.3 319.45 202.5 321.4 199.8
L 324 196.2
Q 325.75 196.95 329.6 198.7 336.95 188.55 342.9 169.2 349.15 148.95 349.6 135.9 356.9 135.05 363.1 133.7 369.5 132.3 376.9 129.8 384.15 141.6 392.8 165.3 396.75 176.8 403.3 195.7 404.2 198.25 408.7 199.65 412.15 200.4 415.6 201.2 Z
M 378.3 157.5
Q 378.3 150.8 369.2 150.8 362.6 150.8 357.3 154.35 351.7 158 351.7 162.8 351.7 169.1 362.6 169.1 378.3 169.1 378.3 157.5 Z
M 474.95 302.8
Q 474.95 303.9 474.85 304.4 473.4 317.35 463.25 322.7 455.6 326.7 441.65 326.7 439.5 326.7 423.65 325.9 420.9 325.75 414 325.05 408.1 324.4 405.05 324.4 398.9 324.4 395.55 326.8
L 395.85 314.3
Q 397.45 313.5 399.75 313.5 403.2 313.5 407.45 315.5 400.8 296.2 400.45 258.8 400.4 255.45 397.65 254.4 394.8 253.95 391.05 252.95 389.95 252.4 389.95 248.8 389.95 246.6 390.25 246.1 394.55 247.55 410.6 249.2 426.95 250.9 437.55 250.9 449.7 250.9 466.95 250.2 464.3 255.2 462.4 261.05 461 266 459.65 270.9 458.95 270.95 456.35 271.2 454.3 271.4 453.15 271.4 452.15 271.4 452.05 270.8 451.7 263.85 449.85 261 447.1 256.7 434.55 256.7 433.55 256.7 424.75 257.1 421.85 263.85 421.85 273.5 421.85 275.3 422 278.35 422.15 281.45 422.15 282.7 426 282.4 428.8 282.1 435.5 281.35 435.75 280.6 436.15 279.35 436.15 278 436.15 275.8 434.6 273.95 433.25 272.65 431.95 271.3 434.2 270.1 436.2 269.2 441.05 267.15 444.05 267.1 445.05 269.1 445.05 272.6 445.05 273.65 444.9 275.8 444.75 277.95 444.75 279 444.75 282.55 446.75 291 446.95 291.9 446.75 292.1 446.6 292.25 446.15 292.2 442.05 291.65 432.1 291.25 427.5 291.05 422.95 290.9 423.9 307.8 430.25 314.1 435.75 319.6 448.75 319.6 452.85 319.6 456.45 318 459.65 316.6 459.65 315.5 459.65 315 458.55 315 457.7 315 456.2 315.1 454.75 315.2 453.75 315.2 444.2 315.2 441.25 307.9 440.75 306.7 440.75 305.4 440.75 301.6 445.45 298.6 450.4 295.45 459.45 294.1 462.15 293.7 464.15 293.7 474.95 293.7 474.95 302.8 Z
M 389.35 296.3
Q 389.35 300.9 387.55 307.9 385.15 317.2 374.35 322.65 363.1 328.3 345.35 328.3 327.9 328.3 317.75 321.5 309.25 315.9 309.25 308.7 309.25 304.05 312.8 300.7 316.85 296.9 324.55 295.9 328.35 295.4 332.35 295.4 340.6 295.4 345.4 297.8 350.05 300.1 350.05 303.9 350.05 309.65 343.85 313.6 340.95 315.5 333.85 318 331.15 318.95 331.15 319.7 331.15 322.1 341.25 322.1 349.2 322.1 354.7 319.8 361.55 317 361.55 311.6 361.55 310.85 361.35 309.8 358.55 295.55 357.2 292.75 354.25 287 346.05 287 343.9 287 338.75 287.6 333.5 288.1 331.25 288.1 315.45 288.1 315.45 275.4 315.45 271.3 317.05 265.5 319.2 257.6 326.7 252.9 335.6 247.3 351.05 247.3 366.9 247.3 375.8 252.3 383.85 256.8 383.85 263.8 383.85 274.2 367.25 274.2 359.15 274.2 353.5 271.5 348.15 269.05 348.15 265.8 348.15 261.15 355.25 258.5 357.95 257.6 360.65 256.7 363.15 255.8 363.15 254.8 363.15 253.5 359.75 252.55 356.3 251.5 351.95 251.5 346.55 251.5 343.15 253.2 339.05 255.25 339.05 259.3 339.05 261.2 339.95 263.5 341.3 267.9 342.6 272.3 344.1 277 347.1 279.05 351 281.7 359.25 281.7 360 281.7 363.9 281.6 367.8 281.4 369.75 281.4 379.15 281.4 383.6 284.05 389.35 287.55 389.35 296.3 Z
M 368.85 400.85
Q 368.85 407.7 356.45 410.95 349.25 412.85 343.45 412.85 332.85 412.85 332.85 407.05 332.85 400.55 338.3 396 342.65 392.4 349.35 390.75 349.95 390.6 349.95 389.95 349.95 388.8 347.5 387.55 344.7 386.15 341.05 386.15 334.4 386.15 329.4 389.85 323.15 394.45 323.15 402.85 323.15 409.75 327.55 423.95 327.95 425.2 332.65 426.15 337.8 427.2 345.75 427.75 345.05 430.8 344.05 435.15 342.15 435.05 338.45 435.05 316 435.05 294.05 440.65 292.6 438.45 291.65 433.75 291.55 433.2 292.15 432.95 298.05 430.5 298.15 430.5 300.7 429.15 300.85 427.25 301.5 422.1 302.15 417.05 303.25 407.15 303.25 401.75 303.25 395.9 301.95 394.95 300.3 393.75 297.25 393.75 296.1 393.75 293.25 394.25 292.45 394.4 292.45 394.05 292.45 393.3 291.9 388.75 291.25 384.15 291.25 383.65 291.25 382.95 292.05 383.15 296.2 384.25 300.45 384.25 310.8 384.25 322.05 376.75 321.4 380.6 320.45 386.75 328.25 379.45 342.15 379.45 361.05 379.45 367.05 393.65 368.85 397.95 368.85 400.85 Z
M 436.65 401.05
Q 436.65 405.65 435.55 412.15 433.55 423.7 426.95 431.4 418.35 441.35 404.05 441.35 391.05 441.35 380.55 433.05 369.45 424.25 369.45 411.95 369.45 402.3 377.75 393.6 387.2 383.75 402.25 381.85 407.1 381.25 413.45 381.25 426.15 381.25 431.65 386.4 436.65 391.1 436.65 401.05 Z
M 516.55 440.75
Q 515.85 442.65 514.75 445.55
L 484.75 439.95
Q 489.75 431.95 489.75 415.05
L 489.75 410.55
Q 489.4 402.55 485.55 402.55 484.35 402.55 482.35 403.55 474.2 407.65 470.75 421.45 470.85 426.15 475.25 439.25 464.15 434.25 452.95 434.25 445.55 434.25 442.65 436.85
L 442.75 425.35
Q 444.3 424.65 446.65 424.65 450.1 424.65 453.95 426.45 451.25 422.6 449.05 407.3 447.7 397.85 447.25 390.55 447 386.65 442.55 385.95 441.1 385.8 438.25 385.25 436.95 384.85 436.95 380.95 436.95 379.75 437.15 378.95 438.05 379.45 475.75 381.95 469.45 391.9 469.45 408.15 475.4 389.75 491.15 379.55 495.5 376.75 498.75 376.75 504.45 376.75 507.25 384.45 509.55 390.7 509.55 400.65 509.55 404.45 509.15 408.25 507.75 421.6 507.75 428.85 507.75 435.65 509.05 438.25 511.8 439.3 516.55 440.75 Z
M 638.65 330
Q 638.25 331.2 636.85 335 634.7 334.6 621.4 331.1 609.05 327.8 607.45 327.3 613.85 313.35 613.85 294.2 613.85 286.3 611.9 280.85 609.9 275.4 606.85 275.4 603.2 275.4 598.2 281.95 592.7 289.1 590.75 298.1 590.75 305.45 595.75 327.4 585.25 323 574.05 323 565.5 323 562.55 326.1
L 562.05 314.1
Q 563.85 313.1 566.65 313.1 570.05 313.1 573.45 314.6 567.25 298.1 567.25 270.3 567.25 268.35 567.45 264.6 567.65 260.85 567.65 259 567.65 255.8 563.85 254.9 562.2 254.6 558.35 253.9 557.15 253.65 557.15 249.3 557.15 248.4 557.45 247.2 562.1 248.05 597.25 250.8 589.15 261.95 589.15 279.6 589.15 281.9 589.35 283.5 592.25 272.25 599.4 263.1 605.15 255.75 612.6 251.05 618.85 247.1 622.55 247.1 628.95 247.1 632.25 255.3 635.25 262.7 635.25 275.2 635.25 283.05 632.55 298.4 629.85 313.75 629.85 321.5 629.85 324.95 630.55 326.9 632.45 327.7 638.65 330 Z
M 542.45 289.3
Q 542.45 282.45 534.75 277.75 527.25 273.1 516.65 273.1 507.05 273.1 498 278.45 488.45 284.05 488.45 290.8 488.45 298.65 497.3 303.85 504.95 308.3 513.65 308.3 524.6 308.3 533.6 302.1 542.45 296.1 542.45 289.3 Z
M 555.75 275.7
Q 555.75 284.85 551.05 297.2 545.65 311.4 537.5 320.35 526.35 332.5 511.95 332.5 498.7 332.5 488.7 320.95 478.35 308.9 478.35 292 478.35 275.8 489.05 263.95 500.8 250.9 519.55 250.9 555.75 250.9 555.75 275.7 Z
M 591.65 414.25
Q 591.65 417.35 589.15 421.85 581.6 435.5 552.95 436.85 548.8 437.05 548.05 437.05 536.75 437.05 531.35 433.15 524.75 428.35 524.75 416.45 524.75 403.8 532.25 385.95 525.8 386.2 515.85 388.45 515.25 388.55 515.05 387.85 514.95 387.45 514.95 385.15 514.95 378.6 516.25 374.55 522.45 377.25 532.45 377.75 532.3 373.75 531.15 368.85 530.05 364.1 530.05 363.95 530.05 363.5 530.2 363.45 530.35 363.35 530.55 363.35 533.8 363.35 545.75 362.4 557.7 361.4 563.85 360.65 564.9 360.55 564.95 360.65 564.95 360.9 561.35 366.8 557.1 373.7 554.95 378.85 556.5 378.85 558.25 378.85 570.7 378.75 571.1 377.75 571.45 376.65 571.45 375.55 571.45 372.25 567.85 369.55 576.75 364.7 579.85 364.45 580.75 366 580.75 369.15 580.75 370.45 580.6 373 580.45 375.55 580.45 376.55 580.45 379.35 582.05 384.9 583.65 390.4 585.45 394.15 583.4 395.1 581.35 396.05 578.15 397.45 576.55 397.45 575.65 397.45 575.25 397.05 574.65 396.65 572.55 391.75 570.55 387.15 568.05 386.95 566.8 386.85 552.75 386.85 551.8 387.6 550.35 396.25 548.65 405.85 548.65 414.05 548.65 431.45 556.45 431.45 560.55 431.45 565.8 429.2 570.95 426.95 570.95 425.35 570.95 424.85 570.45 424.55 567.55 423.85 560.55 420.75 554.05 416.9 554.05 410.25 554.05 407.15 557.55 405.2 561.25 403.15 567.65 403.15 572.35 403.15 578.45 404.45 591.65 407.25 591.65 414.25 Z
M 318.8 182.7
Q 318.8 187.5 317.7 193.4 314.2 212.15 292.6 215.3 288.5 215.9 285.1 215.9 272.55 215.9 262.45 210.65 250.95 204.6 246.8 193.6 245.3 189.6 245.3 186.7 245.3 178.75 260.4 176.7 264.8 176.1 268.1 176.1 275.95 176.1 280.3 178.4 284.6 180.7 284.2 184.5 283.15 194.9 265.6 199.3 265.1 199.45 265.1 200.1 265.1 202.25 270.3 205.75 275.85 209.5 280.5 209.5 286.75 209.5 290.15 201.75 293.3 194.65 293.3 183.4 293.3 162.45 284.5 145.3 275.8 147.8 269.4 151.7 268 152.55 268 154.9 268 156.15 268.75 159.5 269.5 162.85 269.5 163.6 269.5 165.1 266.1 166 263.05 166.6 258.4 167.7 257.2 156.2 252.2 137.4 252.05 136.9 252.8 136.9
L 264.3 136.9
Q 287.7 136.9 303.6 136.1 304.45 136.05 304.6 137.1 305.85 146.3 312.7 160.3 318.8 172.65 318.8 182.7 Z
M 229.45 315.9
Q 227.85 318.8 224.55 324.6 216.55 324.2 213.35 324.2 202.4 324.2 189.35 326.4 190.55 318 190.55 309.8 190.55 300.75 189.05 295.7 181 294.9 163.95 293 162.35 298.7 160.25 304.5 157.85 311.05 155.05 315.7 157.95 316.4 169.95 317 169.05 323.3 169.05 328.5 157.95 324.8 148.35 322.4 141.95 320.8 131.95 319 133.3 317.2 135.25 314.5
L 137.85 310.9
Q 139.6 311.65 143.45 313.4 150.8 303.25 156.75 283.9 163 263.65 163.45 250.6 170.75 249.75 176.95 248.4 183.35 247 190.75 244.5 198 256.3 206.65 280 210.6 291.5 217.15 310.4 218.05 312.95 222.55 314.35 226 315.1 229.45 315.9 Z
M 307.75 330
Q 307.35 331.2 305.95 335 303.8 334.6 290.5 331.1 278.15 327.8 276.55 327.3 282.95 313.35 282.95 294.2 282.95 286.3 281 280.85 279 275.4 275.95 275.4 272.3 275.4 267.3 281.95 261.8 289.1 259.85 298.1 259.85 305.45 264.85 327.4 254.35 323 243.15 323 234.6 323 231.65 326.1
L 231.15 314.1
Q 232.95 313.1 235.75 313.1 239.15 313.1 242.55 314.6 236.35 298.1 236.35 270.3 236.35 268.35 236.55 264.6 236.75 260.85 236.75 259 236.75 255.8 232.95 254.9 231.3 254.6 227.45 253.9 226.25 253.65 226.25 249.3 226.25 248.4 226.55 247.2 231.2 248.05 266.35 250.8 258.25 261.95 258.25 279.6 258.25 281.9 258.45 283.5 261.35 272.25 268.5 263.1 274.25 255.75 281.7 251.05 287.95 247.1 291.65 247.1 298.05 247.1 301.35 255.3 304.35 262.7 304.35 275.2 304.35 283.05 301.65 298.4 298.95 313.75 298.95 321.5 298.95 324.95 299.65 326.9 301.55 327.7 307.75 330 Z
M 192.15 272.2
Q 192.15 265.5 183.05 265.5 176.45 265.5 171.15 269.05 165.55 272.7 165.55 277.5 165.55 283.8 176.45 283.8 192.15 283.8 192.15 272.2 Z
M 289.85 381.45
Q 289.85 388.1 287.25 391.1 284.6 394.15 278.65 394.15 270.6 394.15 262.85 390.65 254.05 386.7 254.05 381.05 254.05 376.8 258.45 373.75 262.75 370.85 268.55 370.85 275.9 370.85 281.35 374.15 282 374.55 282.15 374.55 282.55 374.55 282.55 374.05 282.55 371.7 278.1 368.9 272.25 365.15 262.75 365.15 259.3 365.15 256.65 365.45 243.95 366.9 243.95 383.95 243.95 390.5 245.65 398.45 253.55 398.95 261.45 398.95 263.4 398.95 267.3 398.8 271.2 398.65 271.75 398.65 272.8 398.65 272.65 399.75 272.35 402.25 272.35 405.05 272.35 411 273.45 417.35 272.2 417.35 268.6 418 264.9 418.65 263.45 418.65 261.4 418.65 260.85 417.85 260.4 417.25 259.85 412.6 259.4 408.7 257.05 408.05 255.9 407.7 247.65 406.55 253 426.95 258.05 437.05 238.6 440.85 217.45 445.55 216.95 443.05 216.95 441.65 216.95 439.9 217.35 439.25 217.75 438.55 219.25 438.25 226.4953125 436.7611328125 226.55 433.2 226.517578125 434.1810546875 225.15 420.7 223.75 406.9 223.75 396.15 223.75 381.05 226.25 368.25 222.95 369.45 219.95 369.45 216.85 369.45 214.85 368.35
L 215.75 356.15
Q 221.05 360.55 243.55 360.55 266.1 360.55 283.15 357.55 283.65 357.45 283.95 357.95 289.85 368.25 289.85 381.45 Z
M 428.25 408.15
Q 428.25 404.4 422 402.25 416.35 400.35 407.45 400.35 397.7 400.35 388.45 405.7 379.75 410.8 379.75 415.35 379.75 418.45 385.35 420.55 390.9 422.65 398.85 422.65 408.9 422.65 418.6 417.9 428.25 413.2 428.25 408.15 Z"/>
</defs>

<g transform="matrix( 1, 0, 0, 1, 0,0) ">
<use xlink:href="#Layer1_0_FILL"/>
</g>

<g transform="matrix( 1, 0, 0, 1, -0.4,-1.45) ">
<use xlink:href="#Layer0_0_FILL"/>

<use xlink:href="#Layer0_0_1_STROKES"/>
</g>
</svg>
