
<svg xmlns="http://www.w3.org/2000/svg" version="1.1" xmlns:xlink="http://www.w3.org/1999/xlink" preserveAspectRatio="none" x="0px" y="0px" width="500px" height="400px" viewBox="0 0 500 400">
<defs>
<filter id="Filter_1" x="-20%" y="-20%" width="140%" height="140%" color-interpolation-filters="sRGB">
<feColorMatrix in="SourceGraphic" type="matrix" values="1 0 0 0 0 0 1 0 0 0 0 0 1 0 0 0 0 0 0.36 0" result="result1"/>
</filter>

<g id="Layer7_0_FILL">
<path fill="#000000" stroke="none" d="
M 623.9 -189.9
Q 469.4 -344.4 250.4 -344.4 31.4 -344.4 -123.1 -189.9 -277.6 -35.4 -277.6 183.6 -277.6 402.6 -123.1 557.1 31.4 711.6 250.4 711.6 469.4 711.6 623.9 557.1 778.4 402.6 778.4 183.6 778.4 -35.4 623.9 -189.9 Z"/>
</g>

<g id="_____0_Layer0_0_FILL">
<path fill="#FF0000" stroke="none" d="
M 197.1 219.1
L 197.1 213.1 182 213.1 182 204.95 194.1 204.95 194.1 201.15 175.1 201.15 175.1 219.1 197.1 219.1
M 203.15 218.5
Q 208.8 219.7 212.7 219.7 217.95 219.7 221.2 216.95 224.45 214.2 224.45 208.85 224.45 204.65 222.45 202.6 221.6966796875 201.8466796875 220.5 201.15
L 203.5 201.15
Q 205.959375 203.273828125 211.5 204.85 215.15 205.9 216.4 206.8 217.6 207.7 217.6 209.3 217.6 213.7 212.3 213.7 208.75 213.7 202.05 212.8
L 201.35 218.15 203.15 218.5
M 230 201.15
L 230 219.1 236.9 219.1 236.9 201.15 230 201.15
M 268.35 218.55
L 268.35 201.15 258.45 201.15 258.45 206.9 261.55 206.9 261.55 213.5 257.4 213.7
Q 252.85 213.7 251.4 211.35 249.95 209 249.95 203.15 249.95 202.09375 249.95 201.15
L 242.85 201.15
Q 242.85 201.5451171875 242.85 201.95 242.85 211.2 245.8 215.45 248.8 219.7 256.75 219.7 261.2 219.7 268.35 218.55
M 274.85 201.15
L 274.85 219.1 281.75 219.1 281.75 201.15 274.85 201.15
M 291.2 201.15
L 285.3 201.15 290.75 219.1 302.1 219.1 302.1 201.15 295.2 201.15 295.2 213.1 294.7 213.1 291.2 201.15
M 143.2 219.1
L 154.65 219.1
Q 159.15 219.1 162.05 218.05 164.95 216.95 166.5 214.6 168 212.2 168.55 209.15 169.1 206.15 169.1 201.55 169.1 201.3484375 169.1 201.15
L 162 201.15 162 201.2
Q 162 204 161.9 205.6 161.55 209.65 160.1 211.2 158.4 213.1 154.65 213.1
L 150.1 213.1 150.1 201.15 143.2 201.15 143.2 219.1
M 331.5 219.1
L 331.5 213.1 316.4 213.1 316.4 204.95 328.5 204.95 328.5 201.15 309.5 201.15 309.5 219.1 331.5 219.1
M 350.75 207.7
L 354.7 219.1 362.25 219.1 357.4 206.1
Q 360.3568359375 204.237109375 361.55 201.15
L 353.15 201.15
Q 352.1126953125 201.8 350.5 201.8
L 344.1 201.8 344.1 201.15 337.2 201.15 337.2 219.1 344.1 219.1 344.1 207.7 350.75 207.7 Z"/>
</g>

<g id="____0_Layer0_0_FILL">
<path fill="#FF0000" stroke="none" d="
M 268.35 200.9
L 258.45 200.9 258.45 201.15 268.35 201.15 268.35 200.9
M 302.1 185.1
L 295.2 185.1 295.2 201.15 302.1 201.15 302.1 185.1
M 281.75 191.1
L 282.25 191.1 285.3 201.15 291.2 201.15 286.5 185.1 274.85 185.1 274.85 201.15 281.75 201.15 281.75 191.1
M 256.5 184.5
Q 249.05 184.5 245.95 188.6 242.9857421875 192.5205078125 242.85 201.15
L 249.95 201.15
Q 250.0841796875 196.8203125 250.7 194.85 251.4 192.4 252.95 191.5 254.5 190.6 258.3 190.6 262.15 190.6 268.15 191.25
L 268.35 185.9 266.55 185.55
Q 261.15 184.5 256.5 184.5
M 236.9 185.1
L 230 185.1 230 201.15 236.9 201.15 236.9 185.1
M 207.8 194.1
Q 207.8 190.5 213.25 190.5 216.15 190.5 223.2 191.3
L 223.75 185.85 221.95 185.5
Q 216.25 184.5 212.55 184.5 207.15 184.5 204.05 187 200.95 189.5 200.95 194.6 200.95 198.65 203.3 200.95 203.407421875 201.0505859375 203.5 201.15
L 220.5 201.15
Q 218.5853515625 199.997265625 215.5 199 210.5 197.4 209.15 196.55 207.8 195.7 207.8 194.1
M 168.5 194.1
Q 167.9 191.2 166.35 189.05 164.75 186.95 161.9 186 159.05 185.1 154.65 185.1
L 143.2 185.1 143.2 201.15 150.1 201.15 150.1 191.1 154.65 191.1
Q 157.15 191.1 158.6 191.65 160.1 192.15 160.85 193.55 161.6 194.95 161.8 196.65 161.9982421875 198.3349609375 162 201.15
L 169.1 201.15
Q 169.0736328125 196.825 168.5 194.1
M 197.1 185.1
L 175.1 185.1 175.1 201.15 194.1 201.15 194.1 199.05 182 199.05 182 191.1 197.1 191.1 197.1 185.1
M 350.4 185.1
L 337.2 185.1 337.2 201.15 344.1 201.15 344.1 191 350.4 191
Q 352.8 191 354.1 192.45 355.35 193.9 355.35 196.35 355.35 198.8 354.15 200.3 353.73984375 200.8126953125 353.15 201.15
L 361.55 201.15
Q 362.4 199.0173828125 362.4 196.3 362.4 185.1 350.4 185.1
M 331.5 191.1
L 331.5 185.1 309.5 185.1 309.5 201.15 328.5 201.15 328.5 199.05 316.4 199.05 316.4 191.1 331.5 191.1 Z"/>
</g>

<g id="ANSEON_0_Layer0_0_FILL">
<path fill="#FFFFFF" stroke="none" d="
M 7.2 7.45
L 4.05 7.45 2.2 15.6 3.85 15.6 4.2 14.1 7.05 14.1 7.35 15.6 9 15.6 7.2 7.45
M 5.3 8.8
L 5.9 8.8 6.75 12.7 4.5 12.7 5.3 8.8
M 11.75 8.9
L 11.85 8.9 13.9 15.6 16.65 15.6 16.65 7.45 14.95 7.45 14.95 14.15 14.85 14.15 12.9 7.45 10.1 7.45 10.1 15.6 11.75 15.6 11.75 8.9
M 26.6 12.2
L 29.5 12.2 29.5 10.8 26.6 10.8 26.6 8.9 30.2 8.9 30.2 7.45 24.95 7.45 24.95 15.6 30.2 15.6 30.2 14.15 26.6 14.15 26.6 12.2
M 23.1 11.65
Q 22.65 11.15 21.45 10.8 20.25 10.4 19.9 10.2 19.6 10 19.6 9.6 19.6 8.75 20.9 8.75 21.6 8.75 23.3 8.95
L 23.4 7.6 23 7.55
Q 21.6 7.3 20.75 7.3 19.45 7.3 18.7 7.9 17.95 8.5 17.95 9.7 17.95 10.7 18.5 11.25 19.1 11.8 20.5 12.2 21.35 12.45 21.65 12.65 21.95 12.85 21.95 13.25 21.95 14.3 20.65 14.3 19.8 14.3 18.2 14.1
L 18.05 15.35 18.45 15.45
Q 19.85 15.75 20.75 15.75 22 15.75 22.8 15.1 23.6 14.4 23.6 13.15 23.6 12.15 23.1 11.65
M 38 11.55
Q 38 9.4 37.25 8.35 36.45 7.3 34.6 7.3 32.75 7.3 32 8.35 31.25 9.4 31.25 11.55 31.25 13.7 32 14.75 32.75 15.75 34.6 15.75 36.45 15.75 37.25 14.75 38 13.7 38 11.55
M 32.95 11.55
Q 32.95 10.1 33.3 9.4 33.65 8.75 34.6 8.75 35.55 8.75 35.95 9.4 36.3 10.1 36.3 11.55 36.3 13.05 35.95 13.65 35.6 14.3 34.6 14.3 33.65 14.3 33.3 13.65 32.95 13.05 32.95 11.55
M 41.05 8.9
L 41.15 8.9 43.2 15.6 45.95 15.6 45.95 7.45 44.25 7.45 44.25 14.15 44.15 14.15 42.2 7.45 39.4 7.45 39.4 15.6 41.05 15.6 41.05 8.9 Z"/>
</g>

<path id="Layer3_0_1_STROKES" stroke="#FF0000" stroke-width="1" stroke-linejoin="round" stroke-linecap="round" fill="none" d="
M 143.65 277.2
L 143.65 279.6"/>

<path id="Layer2_0_1_STROKES" stroke="#FF0000" stroke-width="1" stroke-linejoin="round" stroke-linecap="round" fill="none" d="
M 362.05 131.35
L 362.05 126"/>

<path id="Layer1_0_1_STROKES" stroke="#FFFFFF" stroke-width="1" stroke-linejoin="round" stroke-linecap="round" fill="none" d="
M 147.1 265.55
L 147.1 268"/>

<path id="Layer0_0_1_STROKES" stroke="#FFFFFF" stroke-width="1" stroke-linejoin="round" stroke-linecap="round" fill="none" d="
M 358.65 137.6
L 358.65 140.75"/>
</defs>

<g transform="matrix( 1, 0, 0, 1, 0,0) ">
<use xlink:href="#Layer7_0_FILL"/>
</g>

<g transform="matrix( 1, 0, 0, 1, 143.2,219.3) ">
<g transform="matrix( 1, 0, 0, 1, -143.2,-201.15) ">
<use xlink:href="#_____0_Layer0_0_FILL"/>
</g>
</g>

<g transform="matrix( 1, 0, 0, 1, 143.2,167.8) ">
<g transform="matrix( 1, 0, 0, 1, -143.2,-184.5) ">
<use xlink:href="#____0_Layer0_0_FILL"/>
</g>
</g>

<g transform="matrix( 1, 0, 0, 1, 228.65,190.6) ">
<g transform="matrix( 1, 0, 0, 1, 0,0) ">
<use filter="url(#Filter_1)" xlink:href="#ANSEON_0_Layer0_0_FILL"/>
</g>
</g>

<g transform="matrix( 1, 0, 0, 1, 0,0) ">
<use xlink:href="#Layer3_0_1_STROKES"/>
</g>

<g transform="matrix( 1, 0, 0, 1, 0,0) ">
<use xlink:href="#Layer2_0_1_STROKES"/>
</g>

<g transform="matrix( 1, 0, 0, 1, 0,0) ">
<use xlink:href="#Layer1_0_1_STROKES"/>
</g>

<g transform="matrix( 1, 0, 0, 1, 0,0) ">
<use xlink:href="#Layer0_0_1_STROKES"/>
</g>
</svg>
